<svg width="101" height="101" fill="none" xmlns="http://www.w3.org/2000/svg"><circle cx="50.5" cy="50.5" r="50.5" fill="#fff"/><circle cx="50.5" cy="50.5" r="49.8" stroke="#191919" stroke-opacity=".1" stroke-width="1.4"/><path d="M58.463 28.642l-5.48 5.48c-.825.825-1.698 1.91-1.983 2.961-.285-1.05-.753-2.136-1.578-2.961l-5.48-5.48a6.458 6.458 0 00-9.134 0c-2.275 2.275-2.406 5.917-.577 8.441H51 31.625a6.458 6.458 0 00-4.612 10.98h47.974a6.458 6.458 0 00-4.612-10.98h-2.778.669c1.829-2.524 1.606-6.166-.67-8.441a6.458 6.458 0 00-9.133 0zM27.701 52.159l-.008-.313h21.37v23.896h-1.938c-6.018 0-9.028 0-11.401-1.03-3.165-1.374-5.68-4.008-6.99-7.324-.984-2.486-.984-5.64-.984-11.944 0-1.382-.027-2.418-.049-3.285zm38.575 22.553c-2.373 1.03-5.383 1.03-11.401 1.03h-1.938V51.846h21.298c.015.93.015 2.046.015 3.598 0 6.305 0 9.457-.983 11.944-1.311 3.316-3.826 5.95-6.99 7.323z" fill="#232222"/></svg>