<svg width="30" height="30" fill="none" xmlns="http://www.w3.org/2000/svg"><path fill-rule="evenodd" clip-rule="evenodd" d="M8.816.09C10.416.017 10.926 0 15 0s4.585.017 6.184.09c1.597.073 2.688.327 3.642.698a7.352 7.352 0 012.656 1.73 7.353 7.353 0 011.73 2.656c.371.955.625 2.045.698 3.642.073 1.6.09 2.11.09 6.184s-.017 4.585-.09 6.184c-.073 1.597-.327 2.688-.698 3.642a7.352 7.352 0 01-1.73 2.656 7.352 7.352 0 01-2.656 1.73c-.954.371-2.045.625-3.642.698-1.6.073-2.11.09-6.184.09s-4.585-.017-6.184-.09c-1.597-.073-2.687-.327-3.642-.698a7.353 7.353 0 01-2.656-1.73 7.352 7.352 0 01-1.73-2.656C.417 23.872.163 22.78.09 21.184.017 19.584 0 19.075 0 15s.017-4.585.09-6.184c.073-1.597.327-2.687.698-3.642a7.352 7.352 0 011.73-2.656A7.352 7.352 0 015.174.788C6.13.417 7.22.163 8.816.09zm15.03 3.217c-.528-.206-1.322-.45-2.785-.517-1.581-.072-2.056-.087-6.061-.087s-4.48.015-6.061.087c-1.463.067-2.257.311-2.786.517-.7.272-1.2.597-1.724 1.122a4.647 4.647 0 00-1.122 1.724c-.206.529-.45 1.323-.517 2.786-.072 1.581-.087 2.056-.087 6.061s.015 4.48.087 6.061c.067 1.463.311 2.257.517 2.786.272.7.597 1.2 1.122 1.724.525.525 1.024.85 1.724 1.122.529.206 1.323.45 2.786.517 1.581.072 2.056.087 6.061.087 4.006 0 4.48-.015 6.061-.087 1.463-.067 2.257-.311 2.786-.517.7-.272 1.2-.597 1.724-1.122a4.648 4.648 0 001.122-1.724c.206-.529.45-1.323.517-2.786.072-1.581.087-2.056.087-6.061s-.015-4.48-.087-6.061c-.067-1.463-.311-2.257-.517-2.786-.272-.7-.597-1.2-1.122-1.724a4.648 4.648 0 00-1.724-1.122zM15 7.297a7.703 7.703 0 100 15.406 7.703 7.703 0 000-15.406zM10 15a5 5 0 1010 0 5 5 0 00-10 0zm13.007-6.207a1.8 1.8 0 100-3.6 1.8 1.8 0 000 3.6z" fill="#FDD65B"/></svg>