<svg width="143" height="31" fill="none" xmlns="http://www.w3.org/2000/svg"><path d="M29.898 26.596l-6.561-9.667a2.343 2.343 0 00-.617-.614l-.54-.384c-.618-.46-.618-1.304 0-1.765l.462-.306c.232-.154.463-.384.618-.614l6.715-9.515c.54-.844.618-1.918 0-2.685-.772-.998-2.161-1.228-3.164-.537L17.085 7.03a2.343 2.343 0 00-.618.613l-.386.538c-.463.613-1.312.613-1.775 0l-.309-.46a2.344 2.344 0 00-.617-.615L3.808.432c-.85-.537-1.93-.614-2.702 0C.103 1.2-.129 2.58.566 3.578l6.561 9.668c.155.23.386.46.618.614l.54.383c.618.46.618 1.304 0 1.765l-.463.307a2.343 2.343 0 00-.618.614l-6.792 9.59c-.618.921-.54 2.149.231 2.916.772.768 2.007.92 2.933.307l9.726-6.522c.232-.153.463-.383.618-.614l.386-.537c.463-.613 1.312-.613 1.775 0l.309.46c.154.23.386.461.617.614l9.726 6.753c.927.613 2.162.537 2.934-.23.771-.921.849-2.149.231-3.07z" fill="#E3B748"/><path d="M41.695 7.93h3.424v15.284h-3.424V7.928zm14.362 2.646c-1.595 0-2.75.448-3.468 1.345-.702.882-1.053 2.095-1.053 3.64 0 .75.088 1.433.263 2.05a4.53 4.53 0 00.79 1.566c.351.442.79.787 1.317 1.037.527.235 1.141.353 1.843.353.38 0 .703-.008.966-.022.278-.015.52-.044.724-.088V15.14h3.424v7.565c-.41.162-1.068.331-1.975.508-.907.19-2.027.286-3.358.286-1.141 0-2.18-.176-3.116-.53a6.506 6.506 0 01-2.37-1.543c-.659-.676-1.171-1.507-1.537-2.492-.35-.985-.526-2.11-.526-3.375 0-1.279.197-2.411.592-3.396.395-.985.936-1.816 1.624-2.493a6.79 6.79 0 012.414-1.566 8.392 8.392 0 012.985-.529c.717 0 1.36.052 1.931.155a9.561 9.561 0 011.492.33c.425.118.769.243 1.032.375.278.133.475.236.592.31l-.987 2.756a8.337 8.337 0 00-1.624-.64 6.48 6.48 0 00-1.975-.286zm12.139 10.013c.483 0 .878-.037 1.185-.11.322-.089.578-.199.768-.331a1.17 1.17 0 00.395-.508c.074-.19.11-.404.11-.64 0-.499-.234-.91-.702-1.234-.468-.338-1.273-.699-2.414-1.08a21.044 21.044 0 01-1.492-.596 5.973 5.973 0 01-1.34-.86 4.297 4.297 0 01-.965-1.258c-.249-.5-.373-1.102-.373-1.808s.132-1.338.395-1.897a4.045 4.045 0 011.12-1.456c.482-.397 1.067-.698 1.755-.904.688-.22 1.463-.33 2.326-.33 1.024 0 1.91.11 2.656.33.746.22 1.36.463 1.843.728l-.987 2.713a8.59 8.59 0 00-1.427-.574c-.512-.176-1.134-.264-1.865-.264-.82 0-1.412.117-1.778.352-.351.221-.527.566-.527 1.037 0 .28.066.515.198.706.132.191.314.367.549.53.248.146.526.286.834.418.321.118.672.243 1.053.375.79.294 1.478.588 2.063.882.585.28 1.068.61 1.448.993.395.382.688.83.878 1.345.19.515.285 1.14.285 1.875 0 1.426-.497 2.536-1.492 3.33-.995.78-2.494 1.17-4.499 1.17a11.4 11.4 0 01-1.821-.133 10.994 10.994 0 01-1.449-.287 9.06 9.06 0 01-1.075-.375 8.793 8.793 0 01-.746-.375l.965-2.735c.454.25 1.01.478 1.668.684.673.191 1.493.287 2.458.287zM87.673 7.93v2.932h-4.586v12.351h-3.424v-12.35h-4.587V7.928h12.597zm8.148 15.592c-1.068 0-1.99-.147-2.765-.44-.776-.31-1.42-.729-1.931-1.258a5.342 5.342 0 01-1.12-1.919c-.234-.75-.35-1.573-.35-2.47V7.929h3.423v9.22c0 .617.066 1.146.197 1.587.147.427.337.78.57 1.059.25.265.542.456.879.573a3.57 3.57 0 001.14.177c.835 0 1.508-.258 2.02-.772.527-.515.79-1.39.79-2.625V7.93h3.424v9.506c0 .897-.125 1.72-.373 2.47a5.167 5.167 0 01-1.142 1.941c-.512.53-1.163.941-1.953 1.235-.79.294-1.726.441-2.809.441zm12.993-3.11c.161.015.344.03.549.045h.768c1.711 0 2.977-.434 3.796-1.302.834-.867 1.251-2.066 1.251-3.595 0-1.602-.395-2.816-1.185-3.639s-2.041-1.235-3.753-1.235c-.234 0-.475.007-.724.022-.249 0-.483.015-.702.044v9.66zm9.898-4.852c0 1.324-.205 2.478-.615 3.463-.41.985-.995 1.801-1.756 2.448-.746.647-1.66 1.132-2.743 1.456-1.083.323-2.297.485-3.643.485-.614 0-1.331-.03-2.151-.088a16.43 16.43 0 01-2.414-.309V8.128a18.74 18.74 0 012.458-.287 33.318 33.318 0 012.217-.088c1.302 0 2.48.147 3.533.44 1.068.295 1.983.758 2.743 1.39.761.633 1.346 1.441 1.756 2.426.41.986.615 2.17.615 3.551zm2.859-7.63h3.424v15.284h-3.424V7.928zm9.819 7.63c0 .75.088 1.426.263 2.03a5.08 5.08 0 00.791 1.565c.351.427.775.758 1.272.993.498.235 1.068.353 1.712.353.629 0 1.193-.118 1.69-.353a3.41 3.41 0 001.273-.993c.351-.44.614-.963.79-1.566.19-.602.285-1.279.285-2.029s-.095-1.426-.285-2.029c-.176-.617-.439-1.14-.79-1.566a3.32 3.32 0 00-1.273-1.014c-.497-.236-1.061-.353-1.69-.353-.644 0-1.214.125-1.712.375a3.55 3.55 0 00-1.272 1.014c-.337.427-.6.949-.791 1.566a7.186 7.186 0 00-.263 2.007zm11.61 0c0 1.309-.198 2.463-.593 3.463-.38.985-.907 1.816-1.58 2.492a6.586 6.586 0 01-2.414 1.5 8.602 8.602 0 01-2.985.507 8.471 8.471 0 01-2.941-.507 6.843 6.843 0 01-2.414-1.5c-.687-.676-1.229-1.507-1.624-2.492-.395-1-.592-2.154-.592-3.463 0-1.308.205-2.455.614-3.44.41-1 .959-1.838 1.646-2.515a6.94 6.94 0 012.414-1.522 8.347 8.347 0 012.897-.507c1.039 0 2.019.17 2.941.507a6.684 6.684 0 012.414 1.522c.688.677 1.229 1.515 1.624 2.515.395.985.593 2.132.593 3.44z" fill="#fff"/></svg>