<svg width="30" height="31" fill="none" xmlns="http://www.w3.org/2000/svg"><path fill-rule="evenodd" clip-rule="evenodd" d="M15 0C6.716 0 0 6.716 0 15c0 6.356 3.954 11.789 9.534 13.974-.132-1.186-.25-3.012.052-4.307.272-1.171 1.758-7.457 1.758-7.457s-.448-.898-.448-2.227c0-2.086 1.209-3.643 2.714-3.643 1.28 0 1.898.96 1.898 2.113 0 1.287-.82 3.211-1.242 4.995-.354 1.493.748 2.71 2.22 2.71 2.667 0 4.716-2.81 4.716-6.869 0-3.592-2.58-6.103-6.265-6.103-4.268 0-6.774 3.201-6.774 6.51 0 1.29.497 2.672 1.117 3.423.122.149.14.28.104.43-.114.475-.367 1.494-.417 1.702-.065.274-.217.333-.501.2-1.874-.872-3.045-3.61-3.045-5.81 0-4.733 3.438-9.079 9.91-9.079 5.204 0 9.248 3.709 9.248 8.664 0 5.17-3.26 9.33-7.784 9.33-1.52 0-2.948-.789-3.438-1.722 0 0-.752 2.864-.934 3.566-.339 1.303-1.253 2.937-1.864 3.933 1.403.434 2.895.669 4.44.669C23.285 30.002 30 23.286 30 15S23.284 0 15 0z" fill="#FDD65B"/></svg>