<svg width="63" height="46" fill="none" xmlns="http://www.w3.org/2000/svg"><path opacity=".03" d="M59 23V10.08c0-2.128 0-3.192-.428-4.005a3.868 3.868 0 00-1.717-1.66C56.015 4 54.915 4 52.715 4h-7.072c-2.2 0-3.3 0-4.141.414-.74.364-1.34.946-1.717 1.66-.428.814-.428 1.878-.428 4.006v6.84c0 2.128 0 3.192.428 4.005a3.866 3.866 0 001.717 1.66c.84.415 1.941.415 4.141.415H59zm0 0v7.6C59 36.896 53.723 42 47.214 42M23.643 23V10.08c0-2.128 0-3.192-.428-4.005a3.87 3.87 0 00-1.718-1.66C20.657 4 19.557 4 17.357 4h-7.07c-2.201 0-3.302 0-4.142.414-.74.364-1.34.946-1.717 1.66C4 6.889 4 7.953 4 10.08v6.84c0 2.128 0 3.192.428 4.005a3.866 3.866 0 001.717 1.66c.84.415 1.94.415 4.141.415h13.357zm0 0v7.6c0 6.296-5.277 11.4-11.786 11.4" stroke="#fff" stroke-width="7" stroke-linecap="round" stroke-linejoin="round"/></svg>