<svg width="91" height="91" fill="none" xmlns="http://www.w3.org/2000/svg"><circle cx="45.306" cy="45.547" r="45.306" fill="#E6E6E6"/><path d="M58.132 46.646a1.1 1.1 0 000-2.2v2.2zm-25.653-2.2a1.1 1.1 0 100 2.2v-2.2zm5.639 9.898a1.1 1.1 0 101.548-1.563l-1.548 1.563zm-2.052-3.583l.774-.78-.774.78zm0-10.43l.774.782-.774-.782zm3.6-2.02a1.1 1.1 0 00-1.548-1.562l1.548 1.562zm-7.155 7.738l-1.091.139 1.09-.14zm0-1.005l-1.091-.14 1.09.14zm25.62-.598H32.48v2.2h25.653v-2.2zm-18.465 8.336L36.84 49.98l-1.549 1.563 2.827 2.801 1.548-1.563zm-2.826-11.67l2.826-2.8-1.548-1.563-2.827 2.801 1.549 1.563zm0 8.868c-1.146-1.135-1.937-1.922-2.474-2.591-.523-.651-.713-1.082-.764-1.48l-2.182.279c.123.964.583 1.772 1.23 2.579.634.788 1.533 1.677 2.641 2.776l1.549-1.563zm-1.549-10.43c-1.108 1.099-2.007 1.987-2.64 2.776-.648.806-1.108 1.614-1.231 2.579l2.182.278c.05-.397.24-.828.764-1.48.537-.668 1.328-1.455 2.474-2.59l-1.549-1.563zm-1.689 6.36a2.868 2.868 0 010-.727l-2.182-.278a5.081 5.081 0 000 1.283l2.182-.278z" fill="#373737"/></svg>