<svg width="91" height="91" fill="none" xmlns="http://www.w3.org/2000/svg"><circle cx="45.694" cy="45.306" r="45.306" transform="rotate(180 45.694 45.306)" fill="#E3B748"/><path d="M33.951 44.206a1.1 1.1 0 100 2.2v-2.2zm25.653 2.2a1.1 1.1 0 000-2.2v2.2zm-5.639-9.897a1.1 1.1 0 00-1.549 1.562l1.55-1.562zm2.052 3.582l-.774.782.774-.782zm0 10.43l-.774-.78.774.78zm-3.6 2.02a1.1 1.1 0 001.548 1.563l-1.549-1.563zm7.155-7.737l1.091-.14-1.09.14zm0 1.005l1.091.139-1.09-.14zm-25.62.597h25.652v-2.2H33.951v2.2zm18.465-8.335l2.826 2.802 1.549-1.563-2.827-2.801-1.549 1.562zm2.826 11.67l-2.827 2.8 1.55 1.563 2.826-2.801-1.549-1.563zm0-8.868c1.145 1.135 1.937 1.922 2.474 2.59.523.652.713 1.083.764 1.48l2.182-.278c-.123-.965-.583-1.773-1.23-2.579-.634-.789-1.533-1.677-2.641-2.776l-1.549 1.563zm1.549 10.43c1.108-1.1 2.007-1.988 2.64-2.776.648-.807 1.108-1.615 1.231-2.58l-2.182-.277c-.05.397-.24.828-.764 1.479-.537.669-1.328 1.456-2.474 2.591l1.549 1.563zm1.689-6.36c.03.241.03.485 0 .727l2.182.278a5.072 5.072 0 000-1.283l-2.182.278z" fill="#000"/></svg>