<svg width="30" height="30" fill="none" xmlns="http://www.w3.org/2000/svg"><path fill-rule="evenodd" clip-rule="evenodd" d="M3.75 30h22.5c2.07 0 3.75-1.68 3.75-3.75V3.75C30 1.68 28.32 0 26.25 0H3.75C1.68 0 0 1.68 0 3.75v22.5C0 28.32 1.68 30 3.75 30zm18.712-18.322c0 5.077-3.87 10.942-10.942 10.942a10.94 10.94 0 01-5.887-1.718c.3.038.607.053.915.053 1.8 0 3.457-.615 4.777-1.65a3.846 3.846 0 01-3.592-2.67c.232.045.472.067.72.067.352 0 .69-.045 1.012-.135a3.854 3.854 0 01-3.082-3.772v-.053a3.89 3.89 0 001.74.48A3.856 3.856 0 016.93 8.085a10.921 10.921 0 007.928 4.02 4.25 4.25 0 01-.098-.878 3.85 3.85 0 013.848-3.847c1.102 0 2.1.465 2.805 1.215a7.65 7.65 0 002.445-.93 3.87 3.87 0 01-1.695 2.13c.78-.098 1.522-.3 2.212-.607a7.835 7.835 0 01-1.92 1.994c.008.165.008.33.008.495z" fill="#FDD65B"/></svg>